<?xml version="1.0" encoding="UTF-8" standalone="no"?>
<!-- Generator: Adobe Illustrator 16.0.0, SVG Export Plug-In . SVG Version: 6.00 Build 0)  -->

<svg
   xmlns:dc="http://purl.org/dc/elements/1.1/"
   xmlns:cc="http://creativecommons.org/ns#"
   xmlns:rdf="http://www.w3.org/1999/02/22-rdf-syntax-ns#"
   xmlns:svg="http://www.w3.org/2000/svg"
   xmlns="http://www.w3.org/2000/svg"
   xmlns:sodipodi="http://sodipodi.sourceforge.net/DTD/sodipodi-0.dtd"
   xmlns:inkscape="http://www.inkscape.org/namespaces/inkscape"
   version="1.1"
   id="Layer_1"
   x="0px"
   y="0px"
   width="201.26px"
   height="34.333px"
   viewBox="0 0 201.26 34.333"
   enable-background="new 0 0 201.26 34.333"
   xml:space="preserve"
   sodipodi:docname="Zevenet_Logo_official_bg_white.svg"
   inkscape:version="0.92.4 (5da689c313, 2019-01-14)"><metadata
   id="metadata33"><rdf:RDF><cc:Work
       rdf:about=""><dc:format>image/svg+xml</dc:format><dc:type
         rdf:resource="http://purl.org/dc/dcmitype/StillImage" /><dc:title></dc:title></cc:Work></rdf:RDF></metadata><defs
   id="defs31" /><sodipodi:namedview
   pagecolor="#ffffff"
   bordercolor="#666666"
   borderopacity="1"
   objecttolerance="10"
   gridtolerance="10"
   guidetolerance="10"
   inkscape:pageopacity="0"
   inkscape:pageshadow="2"
   inkscape:window-width="1920"
   inkscape:window-height="1051"
   id="namedview29"
   showgrid="false"
   inkscape:zoom="1.510484"
   inkscape:cx="101.95408"
   inkscape:cy="43.648078"
   inkscape:window-x="1366"
   inkscape:window-y="0"
   inkscape:window-maximized="1"
   inkscape:current-layer="Layer_1" />
<rect
   style="fill:#ffffff"
   id="rect37"
   width="258.85742"
   height="64.879868"
   x="-17.213026"
   y="-12.671802" /><g
   id="g26">
	<g
   id="g18">
		<g
   id="g16">
			<path
   d="m 43.725,28.513 h 11.954 v 4.972 H 36.765 v -3.21 L 48.425,5.577 H 36.674 V 0.584 h 18.757 v 3.094 z"
   id="path2"
   inkscape:connector-curvature="0"
   style="fill:#595959" />
			<path
   d="M 76.061,18.953 H 66.007 v 9.56 h 12.044 v 4.972 H 59.635 v -32.9 h 18.372 v 4.992 h -12 v 8.405 h 10.054 z"
   id="path4"
   inkscape:connector-curvature="0"
   style="fill:#595959" />
			<path
   d="m 92.084,25.078 0.271,1.378 h 0.136 l 0.272,-1.311 5.694,-24.561 h 6.711 l -9.423,32.9 h -6.622 l -9.378,-32.9 h 6.712 z"
   id="path6"
   inkscape:connector-curvature="0"
   style="fill:#595959" />
			<path
   d="m 124.309,18.953 h -10.058 v 9.56 h 12.047 v 4.972 h -18.421 v -32.9 h 18.374 v 4.992 h -12 v 8.405 h 10.058 z"
   id="path8"
   inkscape:connector-curvature="0"
   style="fill:#595959" />
			<path
   d="m 153.663,33.485 h -6.374 l -10.438,-20.993 -0.137,0.023 v 20.97 h -6.37 v -32.9 h 6.37 l 10.44,21.014 0.135,-0.024 V 0.584 h 6.374 z"
   id="path10"
   inkscape:connector-curvature="0"
   style="fill:#595959" />
			<path
   d="m 175.153,18.953 h -10.058 v 9.56 h 12.047 v 4.972 h -18.418 v -32.9 h 18.372 v 4.992 h -12.001 v 8.405 h 10.058 z"
   id="path12"
   inkscape:connector-curvature="0"
   style="fill:#595959" />
			<path
   d="m 200.983,5.577 h -7.729 v 27.908 h -6.395 V 5.577 h -7.524 V 0.584 h 21.648 z"
   id="path14"
   inkscape:connector-curvature="0"
   style="fill:#595959" />
		</g>
	</g>
	<path
   d="m 0.276,23.712 v 9.772 h 31.935 v -9.772 z m 29.003,6.515 h -7.821 v -3.258 h 7.821 z"
   id="path20"
   inkscape:connector-curvature="0"
   style="clip-rule:evenodd;fill:#21b573;fill-rule:evenodd" />
	<path
   d="m 0.276,12.01 v 9.772 H 32.211 V 12.01 Z m 29.003,6.513 h -7.821 v -3.256 h 7.821 z"
   id="path22"
   inkscape:connector-curvature="0"
   style="clip-rule:evenodd;fill:#21b573;fill-rule:evenodd" />
	<path
   d="m 0.276,0.584 v 9.772 H 32.211 V 0.584 Z M 29.279,7.098 H 21.458 V 3.84 h 7.821 z"
   id="path24"
   inkscape:connector-curvature="0"
   style="clip-rule:evenodd;fill:#21b573;fill-rule:evenodd" />
</g>
</svg>